<svg width="20" height="16" viewBox="0 0 20 16" fill="none" xmlns="http://www.w3.org/2000/svg">
<path d="M-1.20797e-06 8C-1.18942e-06 7.78784 0.0877922 7.58437 0.244067 7.43435C0.400344 7.28432 0.612298 7.20004 0.833304 7.20004L17.1546 7.20005L11.0767 1.36637C10.9993 1.29205 10.9379 1.20381 10.896 1.1067C10.8541 1.00959 10.8325 0.905512 10.8325 0.800402C10.8325 0.695292 10.8541 0.591211 10.896 0.494102C10.9379 0.396993 10.9993 0.308757 11.0767 0.234433C11.1541 0.160109 11.2461 0.101153 11.3472 0.0609285C11.4484 0.0207045 11.5568 1.16922e-06 11.6663 1.17879e-06C11.7758 1.18836e-06 11.8842 0.0207045 11.9854 0.0609286C12.0865 0.101153 12.1784 0.160109 12.2558 0.234433L19.7556 7.43403C19.8331 7.50833 19.8945 7.59655 19.9365 7.69367C19.9784 7.79078 20 7.89487 20 8C20 8.10513 19.9784 8.20922 19.9365 8.30634C19.8945 8.40345 19.8331 8.49168 19.7556 8.56597L12.2558 15.7656C12.0995 15.9157 11.8874 16 11.6663 16C11.4452 16 11.2331 15.9157 11.0767 15.7656C10.9204 15.6155 10.8325 15.4119 10.8325 15.1996C10.8325 14.9873 10.9204 14.7837 11.0767 14.6336L17.1546 8.79996L0.833304 8.79996C0.612298 8.79996 0.400344 8.71567 0.244067 8.56565C0.0877921 8.41563 -1.22651e-06 8.21216 -1.20797e-06 8Z" fill="white"/>
</svg>
