<svg width="14" height="13" viewBox="0 0 14 13" fill="none" xmlns="http://www.w3.org/2000/svg">
<path fill-rule="evenodd" clip-rule="evenodd" d="M1.78253 0.557441C2.6562 -0.292813 4.09484 -0.141735 4.82637 0.815329L5.73234 1.99866C6.32819 2.77724 6.27507 3.865 5.56795 4.55293L5.39709 4.72017C5.37772 4.79038 5.37575 4.8641 5.39135 4.9352C5.43658 5.2219 5.68137 5.82902 6.70652 6.82684C7.73166 7.82466 8.35622 8.06357 8.65343 8.10854C8.72831 8.12329 8.80565 8.12112 8.87956 8.10222L9.17246 7.81693C9.80133 7.20559 10.7662 7.09105 11.5444 7.50493L12.9155 8.23573C14.0907 8.85972 14.3872 10.4225 13.4252 11.3592L12.4051 12.3514C12.0835 12.6641 11.6513 12.9248 11.1244 12.9733C9.82502 13.092 6.79769 12.9402 3.6153 9.84348C0.6454 6.95262 0.0753975 4.43137 0.00289093 3.18901C-0.0330034 2.56081 0.269945 2.02958 0.656168 1.65434L1.78253 0.557441ZM3.96491 1.44705C3.60094 0.971326 2.92325 0.93338 2.54134 1.3051L1.41426 2.4013C1.17735 2.63178 1.06393 2.88615 1.07829 3.12929C1.13572 4.11656 1.59516 6.39117 4.37482 9.09653C7.29088 11.934 9.98367 12.019 11.0246 11.9234C11.2371 11.9045 11.4482 11.7963 11.6456 11.6044L12.665 10.6115C13.0799 10.2082 12.9887 9.47317 12.4015 9.16117L11.0303 8.43108C10.6513 8.23011 10.2076 8.29616 9.93198 8.56459L9.60534 8.88291L9.22486 8.50908C9.60534 8.88291 9.60463 8.88361 9.60391 8.88361L9.60319 8.88502L9.60104 8.88713L9.59601 8.89134L9.58524 8.90118C9.55495 8.92871 9.52228 8.95363 9.48761 8.97566C9.43018 9.01291 9.35408 9.05436 9.2586 9.0888C9.06477 9.15977 8.80777 9.19771 8.49047 9.14993C7.86806 9.05647 7.04321 8.64118 5.94699 7.5745C4.8515 6.50782 4.42364 5.70535 4.32744 5.09682C4.27791 4.78623 4.31739 4.53466 4.39061 4.34494C4.43091 4.23818 4.48861 4.13851 4.56147 4.04981L4.58444 4.02521L4.59449 4.01467L4.5988 4.01046L4.60096 4.00835L4.60239 4.00694L4.80914 3.80598C5.1164 3.50593 5.15947 3.00913 4.87016 2.63038L3.96491 1.44705Z" fill="white"/>
</svg>
