<svg width="23" height="23" viewBox="0 0 23 23" fill="none" xmlns="http://www.w3.org/2000/svg">
<path fill-rule="evenodd" clip-rule="evenodd" d="M8.8731 12.1028L5.61507 10.9679C2.20485 9.78001 0.499023 9.18605 0.499023 8.0936C0.499023 7.00267 2.20485 6.4072 5.61507 5.2193L17.953 0.919198C20.353 0.0828153 21.5531 -0.335376 22.1864 0.326761C22.8198 0.988897 22.4198 2.24347 21.6212 4.7511L17.5066 17.6514C16.3704 21.2166 15.8022 23 14.7573 23C13.7138 23 13.1442 21.2166 12.0079 17.6514L10.921 14.2468L17.2312 7.64965C17.4952 7.36389 17.6413 6.98115 17.638 6.58387C17.6347 6.18659 17.4823 5.80657 17.2136 5.52564C16.9449 5.24471 16.5814 5.08536 16.2014 5.08191C15.8214 5.07846 15.4553 5.23118 15.1819 5.50718L8.8731 12.1028Z" fill="white"/>
</svg>
