<svg width="153" height="49" viewBox="0 0 153 49" fill="none" xmlns="http://www.w3.org/2000/svg">
<g clip-path="url(#clip0_439_2227)">
<path d="M0.34995 18.7772C0.54426 16.19 1.0106 13.6812 1.71012 11.1724C2.17647 9.52601 2.83712 7.99721 3.73095 6.54681C5.63519 3.56761 8.3944 1.92121 11.7754 1.17641C16.7886 0.0788051 21.8795 -0.117195 26.9705 0.0396051C30.4292 0.157205 33.8102 0.666805 37.0746 1.76441C39.9893 2.74441 42.5542 4.27321 44.303 6.89961C45.5077 8.70281 46.0518 10.7412 46.4792 12.8188C47.4897 18.0716 47.5285 23.3636 47.2953 28.6556C47.2565 29.6748 47.101 30.694 47.0233 31.7524C46.9456 31.8308 46.8679 31.9092 46.9456 32.0268C46.4792 35.8684 45.702 39.5924 43.4869 42.846C41.5826 45.6292 38.9011 47.0796 35.7144 47.7852C30.779 48.8828 25.7657 49.118 20.7137 48.922C17.5659 48.8044 14.4569 48.53 11.3868 47.746C8.16123 46.962 5.40202 45.4332 3.38119 42.6892C2.05988 40.8468 1.39923 38.7692 1.0106 36.574C-0.0386713 31.1644 -0.19412 25.6372 0.194501 20.11C0.194501 19.7572 0.194501 19.3652 0.311087 19.0124C0.427674 18.934 0.388812 18.8556 0.311087 18.7772H0.34995Z" fill="#5F08B1"/>
<path d="M113.516 20.4623C112.894 18.8551 111.806 17.6007 110.135 17.0519C107.998 16.3071 106.016 16.6599 104.189 18.0319C104.073 18.1103 103.956 18.3455 103.762 18.2671C103.568 18.1887 103.645 17.9535 103.645 17.7575C103.645 15.7583 103.645 13.7199 103.645 11.7207C103.645 10.1135 103.373 9.79986 101.702 9.83906C101.624 9.83906 101.547 9.83906 101.469 9.83906C100.381 9.87826 99.9922 10.2703 99.9922 11.4071C99.9922 14.8175 99.9922 18.2279 99.9922 21.6383V24.4999C99.9922 27.0479 99.9922 29.5959 99.9922 32.1439C99.9922 32.6143 100.07 33.0847 100.614 33.2415C101.275 33.4375 101.935 33.4767 102.596 33.2415C103.023 33.1239 103.218 32.8495 103.257 32.3791C103.257 32.2223 103.179 31.9871 103.334 31.9087C103.529 31.7911 103.645 32.0655 103.762 32.1439C106.793 34.7703 111.806 33.6335 113.361 29.5567C113.827 28.3415 114.021 27.1263 114.138 25.8327C114.293 23.9511 114.06 22.1479 113.4 20.4231L113.516 20.4623ZM109.941 28.6159C109.086 30.5367 107.104 30.9679 105.433 29.6743C105.239 29.5175 105.044 29.3607 104.889 29.2431C104.112 28.5767 103.49 27.8711 103.684 26.6951C103.762 26.1855 103.684 25.6759 103.684 25.1663C103.684 24.6175 103.723 24.0687 103.684 23.5199C103.606 22.8143 103.801 22.2263 104.306 21.7167C104.85 21.2071 105.355 20.6975 106.016 20.3447C107.609 19.4823 109.358 19.9919 110.019 21.7167C110.912 23.9903 110.951 26.3815 109.941 28.6551V28.6159Z" fill="black"/>
<path d="M68.4748 31.8698C68.4748 31.8698 68.397 31.5954 68.3193 31.4386C66.0653 25.1274 63.7724 18.8162 61.5184 12.505C61.2076 11.6818 60.8189 11.3682 59.9251 11.3682C59.6531 11.3682 59.4199 11.3682 59.1479 11.3682C58.837 11.3682 58.4872 11.3682 58.1763 11.3682C57.5545 11.4074 57.0882 11.6818 56.8939 12.309C56.1555 14.4258 55.3782 16.5426 54.601 18.6594C53.3574 22.0698 52.1527 25.4802 50.9091 28.8906C50.5593 29.8706 50.1707 30.8506 49.8598 31.8698C49.5878 32.693 49.8598 33.1242 50.6759 33.3202C51.1811 33.4378 51.6863 33.3986 52.1916 33.3202C52.9299 33.2418 53.3574 32.8498 53.5906 32.1442C53.9792 30.8114 54.4844 29.5178 54.9119 28.2242C55.0285 27.8714 55.1839 27.7146 55.5726 27.7538C57.8654 27.7538 60.1971 27.7538 62.49 27.7538C62.8786 27.7538 63.0729 27.9106 63.1895 28.2634C63.617 29.5962 64.1222 30.8898 64.5497 32.2226C64.7829 32.889 65.1715 33.281 65.871 33.3594C66.4539 33.3986 66.998 33.4378 67.5809 33.3594C68.397 33.1634 68.6691 32.7322 68.4359 31.909L68.4748 31.8698ZM61.5573 24.657C59.9251 24.657 58.254 24.657 56.6218 24.657C56.2721 24.657 56.1555 24.5786 56.2721 24.1866C57.1659 21.5994 58.0597 18.973 58.9924 16.3466C58.9924 16.3466 59.0313 16.3074 59.109 16.1898C59.5753 17.5226 60.0417 18.777 60.4692 20.0314C60.9355 21.4034 61.4019 22.7754 61.9071 24.1474C62.0237 24.5002 61.9071 24.6178 61.5962 24.6178L61.5573 24.657Z" fill="black"/>
<path d="M148.453 21.4034C147.909 19.5218 146.743 18.1498 144.916 17.3658C143.012 16.5426 141.069 16.5034 139.126 17.013C137.416 17.4442 136.056 18.385 135.046 19.9138C133.957 21.5602 133.685 23.4026 133.646 25.2842C133.646 26.1466 133.724 26.9698 133.88 27.793C134.463 30.6938 136.017 32.7322 139.009 33.3986C140.098 33.6338 141.225 33.7122 142.39 33.5554C144.606 33.2418 146.471 32.301 147.637 30.341C149.308 27.5186 149.386 24.5002 148.492 21.4426L148.453 21.4034ZM144.489 28.773C143.595 30.2626 142.196 30.5762 140.642 30.4194C139.126 30.2626 138.116 29.4002 137.688 27.9106C137.144 25.9898 137.105 24.0298 137.844 22.109C138.349 20.737 139.554 19.953 141.03 19.9138C142.352 19.8746 143.517 20.0706 144.334 21.2074C144.955 22.0698 145.15 23.089 145.266 24.1082C145.266 24.461 145.266 24.8138 145.266 25.1666C145.305 26.421 145.189 27.6754 144.489 28.773Z" fill="black"/>
<path d="M131.432 22.4615C130.927 19.9527 129.644 18.0711 127.196 17.1695C125.758 16.6599 124.243 16.5815 122.727 16.7775C120.356 17.1303 118.491 18.2671 117.403 20.5015C116.082 23.2455 116.043 26.0679 116.898 28.9295C117.481 30.8895 118.724 32.3007 120.667 33.0455C122.688 33.7903 124.748 33.7903 126.807 33.1239C127.896 32.7711 128.867 32.1439 129.606 31.2815C131.199 29.4783 131.665 27.3223 131.704 24.5783C131.704 24.1471 131.626 23.2847 131.471 22.4615H131.432ZM127.818 27.0871C127.352 29.3607 125.991 30.4583 123.621 30.4191C121.755 30.4191 120.434 29.0471 120.123 26.9695C120.045 26.3815 120.007 25.7543 120.007 25.2055C120.007 23.9903 120.123 22.8535 120.667 21.8343C121.328 20.5799 122.338 19.9527 123.737 19.9135C124.942 19.8743 126.03 20.0311 126.885 21.0111C127.39 21.5991 127.624 22.2655 127.779 23.0103C128.09 24.3823 128.09 25.7543 127.818 27.1263V27.0871Z" fill="black"/>
<path d="M96.1061 21.678C95.9895 19.718 95.2511 18.0716 93.308 17.2876C90.3934 16.19 87.5953 16.582 84.9527 18.1108C83.9423 18.6988 84.02 19.7964 84.3309 20.7372C84.4863 21.2468 85.0304 21.4036 85.5745 21.1684C85.7688 21.09 85.9631 20.9724 86.1574 20.8548C87.401 20.1492 88.7223 19.718 90.1991 19.7964C91.6369 19.8748 92.4142 20.5412 92.6085 21.9132C92.6085 22.1484 92.6085 22.3836 92.6085 22.6188C92.6085 23.4028 92.6085 23.442 91.8313 23.4028C90.2768 23.4028 88.7612 23.4028 87.2844 23.8732C85.1858 24.5396 83.6702 25.794 83.4371 28.1068C83.2427 29.91 83.748 31.478 85.3024 32.5364C86.8181 33.5556 88.4891 33.7516 90.2379 33.3988C91.2095 33.2028 92.0256 32.6932 92.8805 32.1052C93.1137 33.0852 93.3469 33.3204 94.2796 33.3596C94.435 33.3596 94.5905 33.3596 94.7848 33.3596C95.7952 33.3596 96.2227 32.9284 96.2227 31.9092C96.2227 28.4988 96.3393 25.0492 96.1061 21.6388V21.678ZM92.6085 27.6364C92.5308 28.0284 92.764 28.5772 92.3365 29.0084C91.5981 29.714 90.8597 30.4196 89.7327 30.5372C89.4607 30.5372 89.2275 30.5372 88.9555 30.5372C87.9451 30.5372 87.2844 29.9884 87.0512 29.0476C86.8569 28.1068 87.2067 27.2052 88.1005 26.774C89.4218 26.1468 90.8597 26.2644 92.2976 26.2252C92.5308 26.2252 92.6085 26.4212 92.6085 26.6172V27.6364Z" fill="black"/>
<path d="M75.5476 28.1459C75.7419 28.0283 75.7419 27.8323 75.8197 27.7147C76.9078 24.5395 77.9571 21.4035 79.0064 18.2283C79.395 17.1307 79.6282 16.9347 80.794 16.9347C81.1826 16.9347 81.5713 16.9347 81.921 17.0131C82.5817 17.2091 82.8537 17.6011 82.6594 18.3067C82.4262 19.0907 82.1542 19.8747 81.8433 20.6587C80.4443 24.6179 79.0064 28.6163 77.5685 32.5755C76.9078 34.3787 76.2471 36.2211 75.6254 38.0243C75.3922 38.7299 74.9258 39.0435 74.2652 39.1219C73.7211 39.2003 73.2159 39.2003 72.6718 39.1219C71.778 39.0043 71.506 38.4555 71.8169 37.6323C72.3609 36.2211 72.905 34.8099 73.4491 33.3987C73.5268 33.2027 73.6045 33.0459 73.4879 32.8107C72.633 30.8115 71.9335 28.7731 71.1562 26.7347C70.1458 24.0691 69.1743 21.4035 68.1638 18.6987C67.6975 17.4835 68.0861 16.9347 69.4074 16.8955C71.3505 16.8955 71.3894 16.8955 72.05 18.6987C73.0993 21.7171 74.1875 24.6963 75.2367 27.7147C75.2756 27.8323 75.3533 27.9499 75.431 28.1067L75.5476 28.1459Z" fill="black"/>
<path d="M46.9848 32.0654C46.9848 32.0654 46.7905 31.987 46.8294 31.9086C46.8294 31.791 46.9848 31.791 47.0625 31.791C47.0625 31.9086 47.0625 31.987 46.9848 32.1046V32.0654Z" fill="#E05A52"/>
<path d="M17.1772 20.5806C17.7212 18.503 18.3042 16.5822 19.198 14.7398C19.6255 13.8382 20.1307 12.9366 20.8302 12.1918C22.4236 10.467 24.3278 10.3886 25.9989 12.035C27.3979 13.407 28.2529 15.1318 29.069 16.8958C29.4187 17.6406 29.7296 18.3854 29.9628 19.1302C30.1183 19.6398 30.3903 19.9142 30.9344 20.0318C32.0614 20.3062 33.1106 20.7374 34.0433 21.4822C34.5485 21.9134 34.8983 22.3838 34.9371 23.0502C34.9371 23.4422 34.9372 23.8342 34.704 24.1478C32.6054 27.7542 30.5069 31.3998 28.4083 35.0062C28.2917 35.2022 28.1751 35.3982 27.9808 35.5158C25.9989 37.0838 23.7837 37.6326 21.3354 36.7702C20.1307 36.3782 19.3146 35.5158 18.7317 34.3398C16.7497 30.1454 14.7289 25.951 12.7469 21.7566C12.2806 20.7374 12.5915 20.0318 13.7185 19.8358C14.9232 19.6006 16.089 19.6006 17.1383 20.5414L17.1772 20.5806Z" fill="white"/>
<path d="M30.351 24.8921C30.351 25.1665 30.2733 25.4409 30.1178 25.7153C28.5633 28.3417 27.0089 31.0073 25.4544 33.6729C25.2212 34.0649 24.9492 34.3785 24.4828 34.3785C24.0165 34.3785 23.7833 34.0257 23.589 33.5945C21.9956 30.2625 20.4023 26.9697 18.809 23.6769C18.5758 23.2065 18.5369 22.8145 18.6535 22.3049C19.2364 19.9137 19.8582 17.5617 20.9464 15.3665C21.2961 14.6217 21.7236 13.9553 22.2677 13.3673C23.0449 12.5441 23.7444 12.5049 24.5994 13.2889C25.1435 13.7593 25.571 14.3473 25.9596 14.9353C26.8145 16.2681 27.4363 17.7185 28.0193 19.2081C28.1359 19.4825 28.1359 19.6001 27.7861 19.6001C25.7264 19.6001 23.8999 20.3057 22.2288 21.4817C21.4127 22.0305 20.6743 22.6185 19.936 23.2849C19.5473 23.6377 19.5862 24.1473 20.0525 24.3825C20.5577 24.6177 20.9852 24.7745 21.5682 24.3041C23.4724 22.8929 25.571 22.0697 27.9804 22.8145C28.5633 23.0105 29.1074 23.2457 29.6126 23.5985C30.0401 23.9121 30.2733 24.3825 30.3121 24.9313L30.351 24.8921Z" fill="#5F08B1"/>
<path d="M146.199 11.9568H145.422V7.48796H144.256V6.74316H147.365V7.48796H146.199V11.9568Z" fill="black"/>
<path d="M151.639 8.42848L150.357 11.9957H150.124L148.919 8.38928L148.336 11.9173H147.442L148.297 6.54688H148.958L150.318 10.1141L151.601 6.54688H152.261L153.039 11.9173H152.145L151.639 8.38928V8.42848Z" fill="black"/>
</g>
<defs>
<clipPath id="clip0_439_2227">
<rect width="153" height="49" fill="white"/>
</clipPath>
</defs>
</svg>
