<svg width="153" height="49" viewBox="0 0 153 49" fill="none" xmlns="http://www.w3.org/2000/svg">
<g clip-path="url(#clip0_439_2392)">
<path d="M0.348973 18.7772C0.543283 16.19 1.00963 13.6812 1.70915 11.1724C2.17549 9.52601 2.83615 7.99721 3.72997 6.54681C5.63422 3.56761 8.39342 1.92121 11.7744 1.17641C16.7876 0.0788051 21.8786 -0.117195 26.9695 0.0396051C30.4282 0.157205 33.8092 0.666805 37.0736 1.76441C39.9883 2.74441 42.5532 4.27321 44.302 6.89961C45.5067 8.70281 46.0508 10.7412 46.4783 12.8188C47.4887 18.0716 47.5275 23.3636 47.2944 28.6556C47.2555 29.6748 47.1001 30.694 47.0223 31.7524C46.9446 31.8308 46.8669 31.9092 46.9446 32.0268C46.4783 35.8684 45.701 39.5924 43.4859 42.846C41.5816 45.6292 38.9002 47.0796 35.7135 47.7852C30.778 48.8828 25.7648 49.118 20.7127 48.922C17.5649 48.8044 14.4559 48.53 11.3858 47.746C8.16025 46.962 5.40104 45.4332 3.38022 42.6892C2.0589 40.8468 1.39825 38.7692 1.00963 36.574C-0.0396479 31.1644 -0.195096 25.6372 0.193525 20.11C0.193525 19.7572 0.193525 19.3652 0.310111 19.0124C0.426697 18.934 0.387835 18.8556 0.310111 18.7772H0.348973Z" fill="#5F08B1"/>
<path d="M113.515 20.4623C112.893 18.8551 111.805 17.6007 110.134 17.0519C107.997 16.3071 106.015 16.6599 104.188 18.0319C104.072 18.1103 103.955 18.3455 103.761 18.2671C103.567 18.1887 103.644 17.9535 103.644 17.7575C103.644 15.7583 103.644 13.7199 103.644 11.7207C103.644 10.1135 103.372 9.79986 101.701 9.83906C101.623 9.83906 101.546 9.83906 101.468 9.83906C100.38 9.87826 99.9912 10.2703 99.9912 11.4071C99.9912 14.8175 99.9912 18.2279 99.9912 21.6383V24.4999C99.9912 27.0479 99.9912 29.5959 99.9912 32.1439C99.9912 32.6143 100.069 33.0847 100.613 33.2415C101.274 33.4375 101.934 33.4767 102.595 33.2415C103.022 33.1239 103.217 32.8495 103.256 32.3791C103.256 32.2223 103.178 31.9871 103.333 31.9087C103.528 31.7911 103.644 32.0655 103.761 32.1439C106.792 34.7703 111.805 33.6335 113.36 29.5567C113.826 28.3415 114.02 27.1263 114.137 25.8327C114.292 23.9511 114.059 22.1479 113.399 20.4231L113.515 20.4623ZM109.94 28.6159C109.085 30.5367 107.103 30.9679 105.432 29.6743C105.238 29.5175 105.043 29.3607 104.888 29.2431C104.111 28.5767 103.489 27.8711 103.683 26.6951C103.761 26.1855 103.683 25.6759 103.683 25.1663C103.683 24.6175 103.722 24.0687 103.683 23.5199C103.605 22.8143 103.8 22.2263 104.305 21.7167C104.849 21.2071 105.354 20.6975 106.015 20.3447C107.608 19.4823 109.357 19.9919 110.018 21.7167C110.911 23.9903 110.95 26.3815 109.94 28.6551V28.6159Z" fill="white"/>
<path d="M68.4738 31.8698C68.4738 31.8698 68.3961 31.5954 68.3183 31.4386C66.0643 25.1274 63.7715 18.8162 61.5175 12.505C61.2066 11.6818 60.818 11.3682 59.9241 11.3682C59.6521 11.3682 59.4189 11.3682 59.1469 11.3682C58.836 11.3682 58.4862 11.3682 58.1753 11.3682C57.5535 11.4074 57.0872 11.6818 56.8929 12.309C56.1545 14.4258 55.3773 16.5426 54.6 18.6594C53.3564 22.0698 52.1517 25.4802 50.9081 28.8906C50.5584 29.8706 50.1697 30.8506 49.8588 31.8698C49.5868 32.693 49.8588 33.1242 50.675 33.3202C51.1802 33.4378 51.6854 33.3986 52.1906 33.3202C52.929 33.2418 53.3564 32.8498 53.5896 32.1442C53.9782 30.8114 54.4834 29.5178 54.9109 28.2242C55.0275 27.8714 55.183 27.7146 55.5716 27.7538C57.8644 27.7538 60.1962 27.7538 62.489 27.7538C62.8776 27.7538 63.072 27.9106 63.1885 28.2634C63.616 29.5962 64.1212 30.8898 64.5487 32.2226C64.7819 32.889 65.1705 33.281 65.87 33.3594C66.453 33.3986 66.997 33.4378 67.58 33.3594C68.3961 33.1634 68.6681 32.7322 68.4349 31.909L68.4738 31.8698ZM61.5563 24.657C59.9241 24.657 58.2531 24.657 56.6208 24.657C56.2711 24.657 56.1545 24.5786 56.2711 24.1866C57.1649 21.5994 58.0587 18.973 58.9914 16.3466C58.9914 16.3466 59.0303 16.3074 59.108 16.1898C59.5744 17.5226 60.0407 18.777 60.4682 20.0314C60.9345 21.4034 61.4009 22.7754 61.9061 24.1474C62.0227 24.5002 61.9061 24.6178 61.5952 24.6178L61.5563 24.657Z" fill="white"/>
<path d="M148.452 21.4034C147.908 19.5218 146.742 18.1498 144.916 17.3658C143.011 16.5426 141.068 16.5034 139.125 17.013C137.415 17.4442 136.055 18.385 135.045 19.9138C133.956 21.5602 133.684 23.4026 133.646 25.2842C133.646 26.1466 133.723 26.9698 133.879 27.793C134.462 30.6938 136.016 32.7322 139.008 33.3986C140.097 33.6338 141.224 33.7122 142.389 33.5554C144.605 33.2418 146.47 32.301 147.636 30.341C149.307 27.5186 149.385 24.5002 148.491 21.4426L148.452 21.4034ZM144.488 28.773C143.594 30.2626 142.195 30.5762 140.641 30.4194C139.125 30.2626 138.115 29.4002 137.687 27.9106C137.143 25.9898 137.104 24.0298 137.843 22.109C138.348 20.737 139.553 19.953 141.029 19.9138C142.351 19.8746 143.516 20.0706 144.333 21.2074C144.954 22.0698 145.149 23.089 145.265 24.1082C145.265 24.461 145.265 24.8138 145.265 25.1666C145.304 26.421 145.188 27.6754 144.488 28.773Z" fill="white"/>
<path d="M131.431 22.4615C130.926 19.9527 129.643 18.0711 127.195 17.1695C125.757 16.6599 124.242 16.5815 122.726 16.7775C120.355 17.1303 118.49 18.2671 117.402 20.5015C116.081 23.2455 116.042 26.0679 116.897 28.9295C117.48 30.8895 118.723 32.3007 120.666 33.0455C122.687 33.7903 124.747 33.7903 126.806 33.1239C127.895 32.7711 128.866 32.1439 129.605 31.2815C131.198 29.4783 131.664 27.3223 131.703 24.5783C131.703 24.1471 131.625 23.2847 131.47 22.4615H131.431ZM127.817 27.0871C127.351 29.3607 125.99 30.4583 123.62 30.4191C121.754 30.4191 120.433 29.0471 120.122 26.9695C120.044 26.3815 120.006 25.7543 120.006 25.2055C120.006 23.9903 120.122 22.8535 120.666 21.8343C121.327 20.5799 122.337 19.9527 123.736 19.9135C124.941 19.8743 126.029 20.0311 126.884 21.0111C127.389 21.5991 127.623 22.2655 127.778 23.0103C128.089 24.3823 128.089 25.7543 127.817 27.1263V27.0871Z" fill="white"/>
<path d="M96.1051 21.678C95.9885 19.718 95.2501 18.0716 93.307 17.2876C90.3924 16.19 87.5943 16.582 84.9517 18.1108C83.9413 18.6988 84.019 19.7964 84.3299 20.7372C84.4854 21.2468 85.0294 21.4036 85.5735 21.1684C85.7678 21.09 85.9621 20.9724 86.1564 20.8548C87.4 20.1492 88.7213 19.718 90.1981 19.7964C91.636 19.8748 92.4132 20.5412 92.6075 21.9132C92.6075 22.1484 92.6075 22.3836 92.6075 22.6188C92.6075 23.4028 92.6075 23.442 91.8303 23.4028C90.2758 23.4028 88.7602 23.4028 87.2834 23.8732C85.1849 24.5396 83.6692 25.794 83.4361 28.1068C83.2418 29.91 83.747 31.478 85.3015 32.5364C86.8171 33.5556 88.4881 33.7516 90.2369 33.3988C91.2085 33.2028 92.0246 32.6932 92.8796 32.1052C93.1127 33.0852 93.3459 33.3204 94.2786 33.3596C94.434 33.3596 94.5895 33.3596 94.7838 33.3596C95.7942 33.3596 96.2217 32.9284 96.2217 31.9092C96.2217 28.4988 96.3383 25.0492 96.1051 21.6388V21.678ZM92.6075 27.6364C92.5298 28.0284 92.763 28.5772 92.3355 29.0084C91.5971 29.714 90.8587 30.4196 89.7317 30.5372C89.4597 30.5372 89.2265 30.5372 88.9545 30.5372C87.9441 30.5372 87.2834 29.9884 87.0502 29.0476C86.8559 28.1068 87.2057 27.2052 88.0995 26.774C89.4208 26.1468 90.8587 26.2644 92.2966 26.2252C92.5298 26.2252 92.6075 26.4212 92.6075 26.6172V27.6364Z" fill="white"/>
<path d="M75.5467 28.1459C75.741 28.0283 75.741 27.8323 75.8187 27.7147C76.9068 24.5395 77.9561 21.4035 79.0054 18.2283C79.394 17.1307 79.6272 16.9347 80.793 16.9347C81.1817 16.9347 81.5703 16.9347 81.92 17.0131C82.5807 17.2091 82.8527 17.6011 82.6584 18.3067C82.4252 19.0907 82.1532 19.8747 81.8423 20.6587C80.4433 24.6179 79.0054 28.6163 77.5675 32.5755C76.9068 34.3787 76.2462 36.2211 75.6244 38.0243C75.3912 38.7299 74.9249 39.0435 74.2642 39.1219C73.7201 39.2003 73.2149 39.2003 72.6709 39.1219C71.777 39.0043 71.505 38.4555 71.8159 37.6323C72.36 36.2211 72.904 34.8099 73.4481 33.3987C73.5258 33.2027 73.6035 33.0459 73.487 32.8107C72.632 30.8115 71.9325 28.7731 71.1552 26.7347C70.1448 24.0691 69.1733 21.4035 68.1629 18.6987C67.6965 17.4835 68.0851 16.9347 69.4064 16.8955C71.3496 16.8955 71.3884 16.8955 72.0491 18.6987C73.0983 21.7171 74.1865 24.6963 75.2358 27.7147C75.2746 27.8323 75.3523 27.9499 75.4301 28.1067L75.5467 28.1459Z" fill="white"/>
<path d="M46.9838 32.0654C46.9838 32.0654 46.7895 31.987 46.8284 31.9086C46.8284 31.791 46.9838 31.791 47.0616 31.791C47.0616 31.9086 47.0616 31.987 46.9838 32.1046V32.0654Z" fill="#E05A52"/>
<path d="M17.1762 20.5806C17.7203 18.503 18.3032 16.5822 19.197 14.7398C19.6245 13.8382 20.1297 12.9366 20.8292 12.1918C22.4226 10.467 24.3268 10.3886 25.9979 12.035C27.3969 13.407 28.2519 15.1318 29.068 16.8958C29.4178 17.6406 29.7287 18.3854 29.9618 19.1302C30.1173 19.6398 30.3893 19.9142 30.9334 20.0318C32.0604 20.3062 33.1097 20.7374 34.0423 21.4822C34.5476 21.9134 34.8973 22.3838 34.9362 23.0502C34.9362 23.4422 34.9362 23.8342 34.703 24.1478C32.6045 27.7542 30.5059 31.3998 28.4073 35.0062C28.2908 35.2022 28.1742 35.3982 27.9799 35.5158C25.9979 37.0838 23.7828 37.6326 21.3344 36.7702C20.1297 36.3782 19.3136 35.5158 18.7307 34.3398C16.7487 30.1454 14.7279 25.951 12.7459 21.7566C12.2796 20.7374 12.5905 20.0318 13.7175 19.8358C14.9222 19.6006 16.0881 19.6006 17.1373 20.5414L17.1762 20.5806Z" fill="white"/>
<path d="M30.35 24.8921C30.35 25.1665 30.2723 25.4409 30.1168 25.7153C28.5624 28.3417 27.0079 31.0073 25.4534 33.6729C25.2202 34.0649 24.9482 34.3785 24.4818 34.3785C24.0155 34.3785 23.7823 34.0257 23.588 33.5945C21.9947 30.2625 20.4013 26.9697 18.808 23.6769C18.5748 23.2065 18.5359 22.8145 18.6525 22.3049C19.2355 19.9137 19.8573 17.5617 20.9454 15.3665C21.2951 14.6217 21.7226 13.9553 22.2667 13.3673C23.0439 12.5441 23.7435 12.5049 24.5984 13.2889C25.1425 13.7593 25.57 14.3473 25.9586 14.9353C26.8136 16.2681 27.4354 17.7185 28.0183 19.2081C28.1349 19.4825 28.1349 19.6001 27.7851 19.6001C25.7254 19.6001 23.8989 20.3057 22.2278 21.4817C21.4117 22.0305 20.6734 22.6185 19.935 23.2849C19.5464 23.6377 19.5852 24.1473 20.0516 24.3825C20.5568 24.6177 20.9843 24.7745 21.5672 24.3041C23.4714 22.8929 25.57 22.0697 27.9794 22.8145C28.5624 23.0105 29.1064 23.2457 29.6116 23.5985C30.0391 23.9121 30.2723 24.3825 30.3112 24.9313L30.35 24.8921Z" fill="#5F08B1"/>
<path d="M146.198 11.9568H145.421V7.48796H144.255V6.74316H147.364V7.48796H146.198V11.9568Z" fill="white"/>
<path d="M151.639 8.42848L150.356 11.9957H150.123L148.918 8.38928L148.335 11.9173H147.441L148.296 6.54688H148.957L150.317 10.1141L151.6 6.54688H152.26L153.038 11.9173H152.144L151.639 8.38928V8.42848Z" fill="white"/>
</g>
<defs>
<clipPath id="clip0_439_2392">
<rect width="153" height="49" fill="white" transform="translate(-0.000976562)"/>
</clipPath>
</defs>
</svg>
