<svg width="17" height="17" viewBox="0 0 17 17" fill="none" xmlns="http://www.w3.org/2000/svg">
<g clip-path="url(#clip0_669_2514)">
<path d="M0.361367 8.39788C0.360969 9.82621 0.737094 11.2209 1.45229 12.4501L0.292969 16.6502L4.62478 15.5232C5.82291 16.1704 7.16531 16.5095 8.52947 16.5096H8.53305C13.0364 16.5096 16.7022 12.8735 16.7041 8.40427C16.705 6.23862 15.8558 4.20218 14.3129 2.67007C12.7703 1.13809 10.7187 0.293957 8.53272 0.292969C4.02885 0.292969 0.363293 3.92886 0.361434 8.39788" fill="url(#paint0_linear_669_2514)"/>
<path d="M0.0710547 8.39563C0.0705898 9.87535 0.460195 11.3199 1.20089 12.5932L0 16.9438L4.48714 15.7764C5.72349 16.4453 7.1155 16.7979 8.53194 16.7984H8.53559C13.2005 16.7984 16.998 13.0316 17 8.40235C17.0008 6.15888 16.121 4.04923 14.523 2.46223C12.9248 0.875434 10.7998 0.000922481 8.53559 0C3.86989 0 0.0729141 3.76636 0.0710547 8.39563ZM2.74331 12.3739L2.57577 12.11C1.87146 10.9988 1.49972 9.71471 1.50025 8.39616C1.50171 4.54842 4.6576 1.41798 8.53825 1.41798C10.4175 1.41878 12.1837 2.14569 13.5121 3.46457C14.8404 4.78359 15.5713 6.53696 15.5709 8.40182C15.5691 12.2496 12.4132 15.3804 8.53559 15.3804H8.5328C7.27022 15.3797 6.03195 15.0433 4.95205 14.4075L4.69506 14.2563L2.0323 14.949L2.74331 12.3739Z" fill="url(#paint1_linear_669_2514)"/>
<path d="M6.4198 4.88604C6.26136 4.53662 6.09461 4.52957 5.94394 4.52344C5.82055 4.51817 5.67951 4.51856 5.53859 4.51856C5.39755 4.51856 5.16838 4.57121 4.97467 4.78107C4.78077 4.99114 4.23438 5.49876 4.23438 6.53122C4.23438 7.56367 4.99227 8.56153 5.09792 8.70168C5.20371 8.84157 6.56105 11.0281 8.71075 11.8693C10.4973 12.5683 10.8609 12.4293 11.2487 12.3942C11.6365 12.3593 12.5 11.8867 12.6762 11.3967C12.8525 10.9067 12.8525 10.4867 12.7997 10.399C12.7468 10.3115 12.6057 10.259 12.3942 10.1541C12.1827 10.0492 11.1429 9.54147 10.949 9.47143C10.7551 9.40145 10.6142 9.36653 10.4731 9.57665C10.3321 9.78645 9.92705 10.259 9.8036 10.399C9.68028 10.5393 9.55684 10.5567 9.3454 10.4518C9.13376 10.3465 8.45263 10.1251 7.64454 9.41028C7.0158 8.85402 6.59133 8.1671 6.46795 7.95698C6.34457 7.74718 6.45473 7.63345 6.56079 7.52888C6.65581 7.43485 6.77236 7.28383 6.87821 7.16134C6.98366 7.03878 7.01886 6.95134 7.08938 6.81139C7.15997 6.6713 7.12464 6.54874 7.07185 6.44378C7.01886 6.33881 6.60787 5.30096 6.4198 4.88604Z" fill="white"/>
</g>
<defs>
<linearGradient id="paint0_linear_669_2514" x1="820.852" y1="1636.02" x2="820.852" y2="0.292969" gradientUnits="userSpaceOnUse">
<stop stop-color="#1FAF38"/>
<stop offset="1" stop-color="#60D669"/>
</linearGradient>
<linearGradient id="paint1_linear_669_2514" x1="850" y1="1694.38" x2="850" y2="0" gradientUnits="userSpaceOnUse">
<stop stop-color="#F9F9F9"/>
<stop offset="1" stop-color="white"/>
</linearGradient>
<clipPath id="clip0_669_2514">
<rect width="17" height="17" fill="white"/>
</clipPath>
</defs>
</svg>
