<svg width="20" height="40" viewBox="0 0 20 40" fill="none" xmlns="http://www.w3.org/2000/svg">
<path d="M9.9856 6.8068V12.7108M10 25C17.2 25 19 19.588 19 13C19 6.412 17.2 1 10 1C2.8 1 1 6.412 1 13C1 19.588 2.8 25 10 25Z" stroke="black" stroke-width="1.5" stroke-linecap="round" stroke-linejoin="round"/>
<path d="M7.5957 8.03087C8.7765 6.80687 9.4965 5.72687 10.0437 5.80367C10.5045 5.80007 10.9365 6.51887 12.4053 8.03087M12.4053 11.9681C11.2245 13.1921 10.5045 14.2721 9.9573 14.1953C9.4965 14.1989 9.0645 13.4813 7.5957 11.9693" stroke="black" stroke-width="1.5" stroke-linecap="round" stroke-linejoin="round"/>
<path d="M15.8558 32L17 33.1898L10.7642 39.6704C10.6643 39.7748 10.5455 39.8577 10.4146 39.9143C10.2837 39.9709 10.1434 40 10.0016 40C9.85986 40 9.71951 39.9709 9.58863 39.9143C9.45775 39.8577 9.33893 39.7748 9.23901 39.6704L3 33.1898L4.14418 32.0011L10 38.0836L15.8558 32Z" fill="black"/>
</svg>
